<?xml version="1.0" encoding="utf-8"?>
<!-- Generator: Adobe Illustrator 21.1.0, SVG Export Plug-In . SVG Version: 6.00 Build 0)  -->
<svg version="1.1" id="Layer_1" xmlns="http://www.w3.org/2000/svg" xmlns:xlink="http://www.w3.org/1999/xlink" x="0px" y="0px"
	 viewBox="0 0 97.7 44" style="enable-background:new 0 0 97.7 44;" xml:space="preserve">
<style type="text/css">
	.st0{fill:#4D4D4D;}
	.st1{clip-path:url(#SVGID_2_);}
	.st2{fill:none;stroke:#000000;stroke-width:2;stroke-linecap:round;stroke-linejoin:round;stroke-miterlimit:10;}
	.st3{fill:none;stroke:#4D4D4D;stroke-width:2.5;stroke-miterlimit:10;}
	.st4{fill:none;stroke:#4D4D4D;stroke-width:2.5;stroke-linecap:round;stroke-linejoin:round;stroke-miterlimit:10;}
	.st5{stroke:#231F20;stroke-width:0.55;stroke-miterlimit:10;}
</style>
<g>
	<path class="st0" d="M96.5,40.7h-1.1l-5.6-13.9c-0.2-0.4-0.6-0.7-1.1-0.7h-1.1c-1.5,0-2.8,0.6-3.8,1.7c-1.7-1.6-4-2.6-6.5-2.6
		c-0.3,0-0.6,0-0.9,0l-6.8-3.2v-2.2c0-0.7-0.5-1.2-1.2-1.2c-0.7,0-1.2,0.5-1.2,1.2v1.1l-11.6-5.4c-0.2-0.1-0.3-0.1-0.5-0.1H43.2
		l-3.4-13h0.5c0.7,0,1.2-0.5,1.2-1.2c0-0.7-0.5-1.2-1.2-1.2H25.9c-0.5,0-1,0.4-1.1,0.9c-0.9,3.4-2.2,9-2.7,11.1h-2.9V7.3
		c0-2-1.6-3.6-3.6-3.6c-0.7,0-1.2,0.5-1.2,1.2c0,0.7,0.5,1.2,1.2,1.2c0.7,0,1.2,0.5,1.2,1.2V12h-9c-0.3,0-0.6,0.1-0.8,0.3l-3.7,3.7
		c-0.2,0.2-0.3,0.5-0.3,0.8v10.7C1.1,29.4,0,31.8,0,34.5C0,39.7,4.2,44,9.5,44c4.8,0,8.8-3.6,9.4-8.3h2.9c0.6,4.7,4.6,8.3,9.4,8.3
		c5.2,0,9.5-4.2,9.5-9.5c0-1-0.2-2-0.5-2.9l2.6-5.7l2.9,2.6V30l-2.2,1.7c-0.3,0.2-0.5,0.6-0.5,0.9v7.2c0,0.7,0.5,1.2,1.2,1.2h20
		c0.7,0,1.2-0.5,1.2-1.2v-4.2c0-0.5-0.3-0.9-0.7-1.1l-10.2-4.6v-4.2L68.1,32c-0.2,0.8-0.3,1.6-0.3,2.5c0,5.2,4.2,9.5,9.5,9.5
		c2.5,0,4.8-1,6.5-2.6c0.9,1,2.3,1.7,3.8,1.7h9c0.7,0,1.2-0.5,1.2-1.2C97.7,41.2,97.2,40.7,96.5,40.7z M40.8,15.3l-8,0l-2.3-2.7V2.4
		h6.9L40.8,15.3z M26.9,2.4h1.2V12h-3.6C25.1,9.8,26.1,5.5,26.9,2.4z M9.5,41.6c-3.9,0-7.1-3.2-7.1-7.1c0-3.9,3.2-7.1,7.1-7.1
		c3.9,0,7.1,3.2,7.1,7.1C16.6,38.4,13.4,41.6,9.5,41.6z M31.2,41.6c-3.9,0-7.1-3.2-7.1-7.1c0-3.9,3.2-7.1,7.1-7.1s7.1,3.2,7.1,7.1
		C38.2,38.4,35.1,41.6,31.2,41.6z M41.1,23.7l-2.4,5.2c-1.7-2.3-4.5-3.9-7.6-3.9c-4.8,0-8.8,3.6-9.4,8.3h-2.9
		c-0.6-4.7-4.6-8.3-9.4-8.3c-1.5,0-2.9,0.3-4.2,1v-8.6l3-3h20.5l2.5,2.9c0.2,0.3,0.6,0.4,0.9,0.4l8.9,0V23.7z M45.4,25.1h6.6v4.4H48
		v-1.6c0-0.3-0.1-0.7-0.4-0.9L45.4,25.1z M63,38.7H45.4v-5.4l1.7-1.3H53l10,4.5V38.7z M53.9,22.8c-0.2-0.1-0.3-0.1-0.5-0.1h-9.9v-5
		h11.3l18.1,8.4c-1.6,0.8-3,2.1-3.9,3.7L53.9,22.8z M77.3,41.6c-3.9,0-7.1-3.2-7.1-7.1c0-3.9,3.2-7.1,7.1-7.1c3.9,0,7.1,3.2,7.1,7.1
		C84.3,38.4,81.2,41.6,77.3,41.6z M87.6,40.7c-0.9,0-1.7-0.5-2.3-1.2c0.9-1.4,1.4-3.1,1.4-5c0-1.8-0.5-3.5-1.4-5
		c0.5-0.7,1.3-1.2,2.3-1.2h0.3l5,12.3H87.6z"/>
	<path class="st0" d="M13.3,17.5c-0.7,0-1.2,0.5-1.2,1.2v2.8c0,0.7,0.5,1.2,1.2,1.2c0.7,0,1.2-0.5,1.2-1.2v-2.8
		C14.4,18.1,13.9,17.5,13.3,17.5z"/>
	<path class="st0" d="M18,17.5c-0.7,0-1.2,0.5-1.2,1.2v2.8c0,0.7,0.5,1.2,1.2,1.2c0.7,0,1.2-0.5,1.2-1.2v-2.8
		C19.2,18.1,18.7,17.5,18,17.5z"/>
	<path class="st0" d="M22.8,17.5c-0.7,0-1.2,0.5-1.2,1.2v2.8c0,0.7,0.5,1.2,1.2,1.2c0.7,0,1.2-0.5,1.2-1.2v-2.8
		C24,18.1,23.4,17.5,22.8,17.5z"/>
	<path class="st0" d="M9.5,29.8c-2.6,0-4.7,2.1-4.7,4.7c0,2.6,2.1,4.7,4.7,4.7c2.6,0,4.7-2.1,4.7-4.7C14.2,31.9,12.1,29.8,9.5,29.8z
		 M9.5,36.9c-1.3,0-2.3-1-2.3-2.3c0-1.3,1-2.3,2.3-2.3c1.3,0,2.3,1,2.3,2.3C11.8,35.8,10.8,36.9,9.5,36.9z"/>
	<path class="st0" d="M31.2,29.8c-2.6,0-4.7,2.1-4.7,4.7c0,2.6,2.1,4.7,4.7,4.7s4.7-2.1,4.7-4.7C35.9,31.9,33.8,29.8,31.2,29.8z
		 M31.2,36.9c-1.3,0-2.3-1-2.3-2.3c0-1.3,1-2.3,2.3-2.3c1.3,0,2.3,1,2.3,2.3C33.5,35.8,32.4,36.9,31.2,36.9z"/>
	<path class="st0" d="M77.3,29.8c-2.6,0-4.7,2.1-4.7,4.7c0,2.6,2.1,4.7,4.7,4.7c2.6,0,4.7-2.1,4.7-4.7C82,31.9,79.9,29.8,77.3,29.8z
		 M77.3,36.9c-1.3,0-2.3-1-2.3-2.3c0-1.3,1-2.3,2.3-2.3c1.3,0,2.3,1,2.3,2.3C79.6,35.8,78.5,36.9,77.3,36.9z"/>
</g>
</svg>
