<?xml version="1.0" encoding="utf-8"?>
<!-- Generator: Adobe Illustrator 21.1.0, SVG Export Plug-In . SVG Version: 6.00 Build 0)  -->
<svg version="1.1" id="Layer_1" xmlns="http://www.w3.org/2000/svg" xmlns:xlink="http://www.w3.org/1999/xlink" x="0px" y="0px"
	 viewBox="0 0 28.6 28.8" style="enable-background:new 0 0 28.6 28.8;" xml:space="preserve">
<style type="text/css">
	.st0{fill:#4D4D4D;}
	.st1{clip-path:url(#SVGID_2_);}
	.st2{fill:none;stroke:#000000;stroke-width:2;stroke-linecap:round;stroke-linejoin:round;stroke-miterlimit:10;}
	.st3{fill:none;stroke:#4D4D4D;stroke-width:2.5;stroke-miterlimit:10;}
	.st4{fill:none;stroke:#4D4D4D;stroke-width:2.5;stroke-linecap:round;stroke-linejoin:round;stroke-miterlimit:10;}
	.st5{stroke:#231F20;stroke-width:0.55;stroke-miterlimit:10;}
</style>
<path d="M24.5,4.2C21.8,1.5,18.2,0,14.4,0C6.5,0,0.1,6.4,0.1,14.3c0,2.5,0.7,5,1.9,7.1l-2,7.4l7.6-2c2.1,1.1,4.4,1.7,6.8,1.7h0h0
	c7.9,0,14.3-6.4,14.3-14.3C28.6,10.5,27.2,6.9,24.5,4.2z M21.3,19.4c-0.3,0.8-1.7,1.6-2.4,1.7c-0.6,0.1-1.4,0.1-2.2-0.1
	c-0.5-0.2-1.2-0.4-2-0.8C11,18.6,8.7,15,8.5,14.8c-0.2-0.2-1.5-1.9-1.5-3.7c0-1.8,0.9-2.6,1.2-3c0.3-0.4,0.7-0.4,1-0.4
	c0.2,0,0.5,0,0.7,0c0.2,0,0.5-0.1,0.8,0.6c0.3,0.7,1,2.5,1.1,2.6c0.1,0.2,0.1,0.4,0,0.6c-0.1,0.2-0.2,0.4-0.4,0.6
	c-0.2,0.2-0.4,0.5-0.5,0.6c-0.2,0.2-0.4,0.4-0.2,0.7c0.2,0.4,0.9,1.5,2,2.5c1.4,1.2,2.5,1.6,2.9,1.8c0.4,0.2,0.6,0.1,0.8-0.1
	c0.2-0.2,0.9-1,1.1-1.4c0.2-0.4,0.5-0.3,0.8-0.2c0.3,0.1,2.1,1,2.4,1.2c0.4,0.2,0.6,0.3,0.7,0.4C21.6,17.8,21.6,18.5,21.3,19.4z"/>
</svg>
