<?xml version="1.0" encoding="utf-8"?>
<!-- Generator: Adobe Illustrator 21.1.0, SVG Export Plug-In . SVG Version: 6.00 Build 0)  -->
<svg version="1.1" id="Layer_1" xmlns="http://www.w3.org/2000/svg" xmlns:xlink="http://www.w3.org/1999/xlink" x="0px" y="0px"
	 viewBox="0 0 103.2 49" style="enable-background:new 0 0 103.2 49;" xml:space="preserve">
<style type="text/css">
	.st0{fill:#4D4D4D;}
	.st1{clip-path:url(#SVGID_2_);}
	.st2{fill:none;stroke:#000000;stroke-width:2;stroke-linecap:round;stroke-linejoin:round;stroke-miterlimit:10;}
	.st3{fill:none;stroke:#4D4D4D;stroke-width:2.5;stroke-miterlimit:10;}
	.st4{fill:none;stroke:#4D4D4D;stroke-width:2.5;stroke-linecap:round;stroke-linejoin:round;stroke-miterlimit:10;}
	.st5{stroke:#231F20;stroke-width:0.55;stroke-miterlimit:10;}
</style>
<g>
	<circle class="st3" cx="41.2" cy="40.3" r="7.4"/>
	<circle class="st3" cx="41.2" cy="40.3" r="3"/>
	<circle class="st3" cx="82.5" cy="40.3" r="7.4"/>
	<circle class="st3" cx="82.5" cy="40.3" r="3"/>
	<polyline class="st4" points="75.1,40.3 65.9,40.3 65.9,12.8 81.2,12.8 87.6,24.5 87.6,34.9 	"/>
	<polyline class="st4" points="89.9,40.3 96.9,40.3 100.3,37.3 102,30.9 87.6,24.5 70.9,24.5 	"/>
	<line class="st4" x1="70.9" y1="12.8" x2="70.9" y2="34.2"/>
	<line class="st4" x1="65.9" y1="34.2" x2="77.8" y2="34.2"/>
	<line class="st4" x1="57.7" y1="34.2" x2="46" y2="34.2"/>
	<polyline class="st4" points="48.6,40.3 59.2,40.3 59.2,24.5 	"/>
	<line class="st4" x1="28.5" y1="34.2" x2="36.7" y2="34.2"/>
	<line class="st4" x1="31.4" y1="40.3" x2="33.7" y2="40.3"/>
	<circle class="st3" cx="23.4" cy="40.3" r="7.4"/>
	<circle class="st3" cx="23.4" cy="40.3" r="3"/>
	<polyline class="st4" points="11.9,29.3 11.9,40.3 7.1,40.3 	"/>
	<line class="st4" x1="7.1" y1="34.2" x2="18.9" y2="34.2"/>
	<line class="st4" x1="11.4" y1="40.3" x2="15.9" y2="40.3"/>
	<polygon class="st4" points="59.2,6 59.2,25.2 59.2,29.3 10.9,29.3 1.3,20.4 1.3,8.8 48.2,9.3 54.9,1.3 59.2,1.3 	"/>
	<line class="st4" x1="65.6" y1="34.2" x2="59.2" y2="34.2"/>
	<line class="st4" x1="65.6" y1="29.3" x2="59.2" y2="29.3"/>
	<line class="st4" x1="31.8" y1="14.4" x2="26.7" y2="21.7"/>
	<line class="st4" x1="37.7" y1="14.4" x2="32.6" y2="21.7"/>
	<line class="st4" x1="43.6" y1="14.4" x2="38.5" y2="21.7"/>
</g>
</svg>
