<?xml version="1.0" encoding="utf-8"?>
<!-- Generator: Adobe Illustrator 21.1.0, SVG Export Plug-In . SVG Version: 6.00 Build 0)  -->
<svg version="1.1" id="Layer_1" xmlns="http://www.w3.org/2000/svg" xmlns:xlink="http://www.w3.org/1999/xlink" x="0px" y="0px"
	 viewBox="0 0 79.5 47.2" style="enable-background:new 0 0 79.5 47.2;" xml:space="preserve">
<style type="text/css">
	.st0{fill:#4D4D4D;}
	.st1{clip-path:url(#SVGID_2_);}
	.st2{fill:none;stroke:#000000;stroke-width:2;stroke-linecap:round;stroke-linejoin:round;stroke-miterlimit:10;}
	.st3{fill:none;stroke:#4D4D4D;stroke-width:2.5;stroke-miterlimit:10;}
	.st4{fill:none;stroke:#4D4D4D;stroke-width:2.5;stroke-linecap:round;stroke-linejoin:round;stroke-miterlimit:10;}
	.st5{stroke:#231F20;stroke-width:0.55;stroke-miterlimit:10;}
</style>
<g>
	<circle class="st3" cx="17.5" cy="38.5" r="7.4"/>
	<circle class="st3" cx="17.5" cy="38.5" r="3"/>
	<circle class="st3" cx="63.8" cy="38.5" r="7.4"/>
	<circle class="st3" cx="63.8" cy="38.5" r="3"/>
	<polyline class="st4" points="56.4,38.5 47.3,38.5 47.3,10.9 62.5,10.9 68.9,22.6 68.9,33.1 	"/>
	<polyline class="st4" points="71.2,38.5 78.3,38.5 78.3,33.6 75.5,30 75.5,25.2 68.9,22.6 52.2,22.6 	"/>
	<line class="st4" x1="52.2" y1="10.9" x2="52.2" y2="32.3"/>
	<line class="st4" x1="47.3" y1="32.3" x2="59.1" y2="32.3"/>
	<polyline class="st4" points="1.3,32.3 1.3,1.3 43.4,1.3 43.4,32.3 	"/>
	<line class="st4" x1="1.3" y1="22.6" x2="46" y2="22.6"/>
	<line class="st4" x1="22.3" y1="26.9" x2="22.3" y2="31.8"/>
	<line class="st4" x1="33.2" y1="26.9" x2="33.2" y2="31.2"/>
	<line class="st4" x1="11.5" y1="26.9" x2="11.5" y2="31.2"/>
	<polyline class="st4" points="6,32.3 6,38.5 1.3,38.5 	"/>
	<line class="st4" x1="49.6" y1="32.3" x2="22.3" y2="32.3"/>
	<line class="st4" x1="52.2" y1="38.5" x2="24.9" y2="38.5"/>
	<line class="st4" x1="1.3" y1="32.3" x2="13" y2="32.3"/>
	<line class="st4" x1="5.5" y1="38.5" x2="10.1" y2="38.5"/>
</g>
</svg>
