<?xml version="1.0" encoding="utf-8"?>
<!-- Generator: Adobe Illustrator 21.1.0, SVG Export Plug-In . SVG Version: 6.00 Build 0)  -->
<svg version="1.1" id="Layer_1" xmlns="http://www.w3.org/2000/svg" xmlns:xlink="http://www.w3.org/1999/xlink" x="0px" y="0px"
	 viewBox="0 0 53.1 43.6" style="enable-background:new 0 0 53.1 43.6;" xml:space="preserve">
<style type="text/css">
	.st0{fill:#4D4D4D;}
	.st1{clip-path:url(#SVGID_2_);}
	.st2{fill:none;stroke:#000000;stroke-width:2;stroke-linecap:round;stroke-linejoin:round;stroke-miterlimit:10;}
	.st3{fill:none;stroke:#4D4D4D;stroke-width:2.5;stroke-miterlimit:10;}
	.st4{fill:none;stroke:#4D4D4D;stroke-width:2.5;stroke-linecap:round;stroke-linejoin:round;stroke-miterlimit:10;}
	.st5{stroke:#231F20;stroke-width:0.55;stroke-miterlimit:10;}
</style>
<g>
	<path class="st0" d="M52,28.1V22c0-0.4-0.2-0.8-0.6-1c-0.1,0-2.9-1.8-6.3-3.8v-2.6c0-0.7-0.5-1.2-1.2-1.2c-0.7,0-1.2,0.5-1.2,1.2
		v1.2c-2.4-1.4-4.8-2.8-6.5-3.7c-0.2-0.1-0.4-0.1-0.6-0.1c0,0,0,0,0,0c-0.5,0-4,0-4,0l-2.5-9.6h0.5c0.7,0,1.2-0.5,1.2-1.2
		C31,0.5,30.4,0,29.8,0H15.5c-0.5,0-1,0.4-1.1,0.9c-0.9,3.5-2.3,9.5-2.8,11.4l-10,4.4C1.3,16.9,1,17.3,1,17.8v10.6
		c-0.6,1.4-1,2.9-1,4.5c0,6,4.8,10.8,10.8,10.8c5,0,9.3-3.5,10.5-8.2l1.5,1.8c0.2,0.3,0.6,0.4,0.9,0.4l5.8,0c0.4,0,0.7-0.2,0.9-0.4
		l1.5-1.8c1.2,4.7,5.4,8.2,10.5,8.2c6,0,10.8-4.8,10.8-10.8C53.1,31.1,52.7,29.5,52,28.1z M29.6,13l-2.4,5.9h-2.7L20,12.6V2.4h6.8
		L29.6,13z M16.5,2.4h1.2v9.6h-3.5C14.7,9.7,15.7,5.4,16.5,2.4z M10.8,41.3c-4.7,0-8.4-3.8-8.4-8.4c0-1.1,0.2-2.2,0.6-3.1h2.3v1.6
		c0,0.2,0,0.4,0.1,0.5L8,37.1c0.2,0.4,0.6,0.7,1.1,0.7h3.4c0.4,0,0.9-0.3,1.1-0.7l2.6-5.3c0.1-0.2,0.1-0.3,0.1-0.5v-1.6h1.9v1.6
		c0,0.3,0.1,0.5,0.3,0.8l0.8,1C19.1,37.6,15.4,41.3,10.8,41.3z M7.7,29.7h6.3V31l-2.2,4.4H9.8L7.7,31V29.7z M28.9,35.3l-4.6,0
		l-3.7-4.5v-2.3c0-0.7-0.5-1.2-1.2-1.2h-16v-4.2h9.3c0.7,0,1.2-0.5,1.2-1.2c0-0.7-0.5-1.2-1.2-1.2H3.3v-2.3l9.6-4.2h5.4l4.6,6.5
		c0.2,0.3,0.6,0.5,1,0.5H28c0.5,0,0.9-0.3,1.1-0.7l2.5-6.2c0,0,3.4,0,3.8,0c3,1.7,7.8,4.5,11.1,6.5h-6.2c-0.7,0-1.2,0.5-1.2,1.2
		c0,0.7,0.5,1.2,1.2,1.2h9.3v4.2H33.8c-0.7,0-1.2,0.5-1.2,1.2v2.3L28.9,35.3z M39.2,29.7h6.3V31l-2.2,4.4h-1.9L39.2,31V29.7z
		 M42.3,41.3c-4.6,0-8.3-3.7-8.4-8.3l0.8-1c0.2-0.2,0.3-0.5,0.3-0.8v-1.6h1.9v1.6c0,0.2,0,0.4,0.1,0.5l2.6,5.3
		c0.2,0.4,0.6,0.7,1.1,0.7H44c0.4,0,0.9-0.3,1.1-0.7l2.6-5.3c0.1-0.2,0.1-0.3,0.1-0.5v-1.6h2.3c0.4,1,0.6,2,0.6,3.1
		C50.7,37.5,47,41.3,42.3,41.3z"/>
	<path class="st0" d="M28,24.7h-2.8c-0.7,0-1.2,0.5-1.2,1.2c0,0.7,0.5,1.2,1.2,1.2H28c0.7,0,1.2-0.5,1.2-1.2
		C29.1,25.2,28.6,24.7,28,24.7z"/>
	<path class="st0" d="M28,29.4h-2.8c-0.7,0-1.2,0.5-1.2,1.2c0,0.7,0.5,1.2,1.2,1.2H28c0.7,0,1.2-0.5,1.2-1.2
		C29.1,29.9,28.6,29.4,28,29.4z"/>
</g>
</svg>
