<?xml version="1.0" encoding="utf-8"?>
<!-- Generator: Adobe Illustrator 21.1.0, SVG Export Plug-In . SVG Version: 6.00 Build 0)  -->
<svg version="1.1" id="Layer_1" xmlns="http://www.w3.org/2000/svg" xmlns:xlink="http://www.w3.org/1999/xlink" x="0px" y="0px"
	 viewBox="0 0 73.1 44.4" style="enable-background:new 0 0 73.1 44.4;" xml:space="preserve">
<style type="text/css">
	.st0{fill:#4D4D4D;}
	.st1{clip-path:url(#SVGID_2_);}
	.st2{fill:none;stroke:#000000;stroke-width:2;stroke-linecap:round;stroke-linejoin:round;stroke-miterlimit:10;}
	.st3{fill:none;stroke:#4D4D4D;stroke-width:2.5;stroke-miterlimit:10;}
	.st4{fill:none;stroke:#4D4D4D;stroke-width:2.5;stroke-linecap:round;stroke-linejoin:round;stroke-miterlimit:10;}
	.st5{stroke:#231F20;stroke-width:0.55;stroke-miterlimit:10;}
</style>
<g>
	<path class="st0" d="M71.9,30.1h-3v-0.6c0-0.7-0.5-1.2-1.2-1.2c-0.7,0-1.2,0.5-1.2,1.2v0.6h-2.4v-0.6c0-0.7-0.5-1.2-1.2-1.2
		c-0.7,0-1.2,0.5-1.2,1.2v0.6h-0.9c-2.4,0-4.4-2-4.4-4.4v-2.9c2-0.5,3.6-2.4,3.6-4.6c0-2.2-1.5-4.1-3.6-4.6V7.5
		c0-0.7-0.5-1.2-1.2-1.2c-0.7,0-1.2,0.5-1.2,1.2v6.2c-0.4,0.1-0.8,0.3-1.1,0.5H35.4l-2.3-1.7c-0.2-0.2-0.5-0.3-0.7-0.3h-2.8
		l-2.5-9.8h0.5c0.7,0,1.2-0.5,1.2-1.2c0-0.7-0.5-1.2-1.2-1.2H13.2c-0.5,0-1,0.4-1.2,0.9c-0.9,3.4-2.2,9-2.7,11.3h-3
		c-0.7,0-1.2,0.5-1.2,1.2v13C2.1,28,0,31.2,0,34.8c0,5.3,4.3,9.6,9.6,9.6c5.1,0,9.3-4,9.5-9h14.3c0.3,5,4.5,9,9.5,9
		c5.3,0,9.6-4.3,9.6-9.6c0-5.3-4.3-9.6-9.6-9.6c-0.1,0-0.2,0-0.3,0l-1.8-2.8h11.9c0.4,0.2,0.7,0.4,1.1,0.5v2.9c0,3.7,3,6.8,6.8,6.8
		h11.1c0.7,0,1.2-0.5,1.2-1.2C73.1,30.7,72.6,30.1,71.9,30.1z M39.9,16.6h10.8c-0.2,0.5-0.3,1.1-0.3,1.7c0,0.6,0.1,1.2,0.3,1.7H39.9
		V16.6z M57.6,18.3c0,1.3-1.1,2.4-2.4,2.4c-1.3,0-2.4-1.1-2.4-2.4c0-1.3,1.1-2.4,2.4-2.4C56.5,15.9,57.6,17,57.6,18.3z M34.3,16.3
		c0.2,0.2,0.5,0.3,0.7,0.3h2.5V20h-5.7v-1.7c0-0.7-0.5-1.2-1.2-1.2c-0.7,0-1.2,0.5-1.2,1.2V20h-2.4v-1.7c0-0.7-0.5-1.2-1.2-1.2
		c-0.7,0-1.2,0.5-1.2,1.2V20h-2.4v-1.7c0-0.7-0.5-1.2-1.2-1.2c-0.7,0-1.2,0.5-1.2,1.2V20h-1.3l-3.3-5.5H32L34.3,16.3z M27.2,12.2
		h-9.4V2.4h6.9L27.2,12.2z M14.1,2.4h1.2v9.8h-3.6C12.3,9.9,13.3,5.5,14.1,2.4z M9.6,42c-4,0-7.2-3.2-7.2-7.2c0-4,3.2-7.2,7.2-7.2
		s7.2,3.2,7.2,7.2C16.7,38.8,13.5,42,9.6,42z M50.2,34.8c0,4-3.2,7.2-7.2,7.2s-7.2-3.2-7.2-7.2c0-4,3.2-7.2,7.2-7.2
		S50.2,30.9,50.2,34.8z M33.6,33H19c-0.2-1.1-0.6-2.1-1.1-3h7.9c0.7,0,1.2-0.5,1.2-1.2c0-0.7-0.5-1.2-1.2-1.2h-9.9
		c-1.7-1.4-3.8-2.3-6.2-2.3c-0.7,0-1.4,0.1-2.1,0.2V14.6h5l4.3,7.3c0.2,0.4,0.6,0.6,1,0.6h20.2l2.1,3.3C36.8,26.7,34.3,29.5,33.6,33
		z"/>
	<path class="st0" d="M38.2,34.8c0,2.6,2.1,4.8,4.8,4.8c2.6,0,4.8-2.1,4.8-4.8c0-2.6-2.1-4.8-4.8-4.8C40.4,30.1,38.2,32.2,38.2,34.8
		z M45.4,34.8c0,1.3-1.1,2.4-2.4,2.4s-2.4-1.1-2.4-2.4c0-1.3,1.1-2.4,2.4-2.4S45.4,33.5,45.4,34.8z"/>
	<path class="st0" d="M9.6,30.1c-2.6,0-4.8,2.1-4.8,4.8c0,2.6,2.1,4.8,4.8,4.8s4.8-2.1,4.8-4.8C14.3,32.2,12.2,30.1,9.6,30.1z
		 M9.6,37.2c-1.3,0-2.4-1.1-2.4-2.4c0-1.3,1.1-2.4,2.4-2.4c1.3,0,2.4,1.1,2.4,2.4C11.9,36.1,10.9,37.2,9.6,37.2z"/>
</g>
</svg>
