<?xml version="1.0" encoding="utf-8"?>
<!-- Generator: Adobe Illustrator 21.1.0, SVG Export Plug-In . SVG Version: 6.00 Build 0)  -->
<svg version="1.1" id="Layer_1" xmlns="http://www.w3.org/2000/svg" xmlns:xlink="http://www.w3.org/1999/xlink" x="0px" y="0px"
	 viewBox="0 0 96.2 49" style="enable-background:new 0 0 96.2 49;" xml:space="preserve">
<style type="text/css">
	.st0{fill:#4D4D4D;}
	.st1{clip-path:url(#SVGID_2_);}
	.st2{fill:none;stroke:#000000;stroke-width:2;stroke-linecap:round;stroke-linejoin:round;stroke-miterlimit:10;}
	.st3{fill:none;stroke:#4D4D4D;stroke-width:2.5;stroke-miterlimit:10;}
	.st4{fill:none;stroke:#4D4D4D;stroke-width:2.5;stroke-linecap:round;stroke-linejoin:round;stroke-miterlimit:10;}
	.st5{stroke:#231F20;stroke-width:0.55;stroke-miterlimit:10;}
</style>
<g>
	<circle class="st3" cx="41.2" cy="40.3" r="7.4"/>
	<circle class="st3" cx="41.2" cy="40.3" r="3"/>
	<circle class="st3" cx="80.5" cy="40.3" r="7.4"/>
	<circle class="st3" cx="80.5" cy="40.3" r="3"/>
	<polyline class="st4" points="73.1,40.3 63.9,40.3 63.9,12.8 79.2,12.8 85.6,24.5 85.6,34.9 	"/>
	<polyline class="st4" points="87.9,40.3 94.9,40.3 94.9,35.4 92.2,31.8 92.2,27 85.6,24.5 68.9,24.5 	"/>
	<line class="st4" x1="68.9" y1="12.8" x2="68.9" y2="34.2"/>
	<line class="st4" x1="63.9" y1="34.2" x2="75.8" y2="34.2"/>
	<line class="st4" x1="66.3" y1="34.2" x2="46" y2="34.2"/>
	<line class="st4" x1="68.9" y1="40.3" x2="48.6" y2="40.3"/>
	<line class="st4" x1="28.5" y1="34.2" x2="36.7" y2="34.2"/>
	<line class="st4" x1="31.4" y1="40.3" x2="33.7" y2="40.3"/>
	<circle class="st3" cx="23.4" cy="40.3" r="7.4"/>
	<circle class="st3" cx="23.4" cy="40.3" r="3"/>
	<polyline class="st4" points="11.9,29.3 11.9,40.3 7.1,40.3 	"/>
	<line class="st4" x1="7.1" y1="34.2" x2="18.9" y2="34.2"/>
	<line class="st4" x1="11.4" y1="40.3" x2="15.9" y2="40.3"/>
	<polygon class="st4" points="59.2,6 59.2,29.3 10.9,29.3 1.3,20.4 1.3,8.8 48.2,9.3 54.9,1.3 59.2,1.3 	"/>
	<line class="st4" x1="63.6" y1="24.5" x2="60" y2="24.5"/>
	<line class="st4" x1="31.8" y1="14.4" x2="26.7" y2="21.7"/>
	<line class="st4" x1="37.7" y1="14.4" x2="32.6" y2="21.7"/>
	<line class="st4" x1="43.6" y1="14.4" x2="38.5" y2="21.7"/>
</g>
</svg>
