<?xml version="1.0" encoding="utf-8"?>
<!-- Generator: Adobe Illustrator 21.1.0, SVG Export Plug-In . SVG Version: 6.00 Build 0)  -->
<svg version="1.1" id="Layer_1" xmlns="http://www.w3.org/2000/svg" xmlns:xlink="http://www.w3.org/1999/xlink" x="0px" y="0px"
	 viewBox="0 0 78.2 49.7" style="enable-background:new 0 0 78.2 49.7;" xml:space="preserve">
<style type="text/css">
	.st0{fill:#4D4D4D;}
	.st1{clip-path:url(#SVGID_2_);}
	.st2{fill:none;stroke:#000000;stroke-width:2;stroke-linecap:round;stroke-linejoin:round;stroke-miterlimit:10;}
	.st3{fill:none;stroke:#4D4D4D;stroke-width:2.5;stroke-miterlimit:10;}
	.st4{fill:none;stroke:#4D4D4D;stroke-width:2.5;stroke-linecap:round;stroke-linejoin:round;stroke-miterlimit:10;}
	.st5{stroke:#231F20;stroke-width:0.55;stroke-miterlimit:10;}
</style>
<g>
	<path class="st0" d="M75.4,21.2c0.2-0.9,0.1-1.9-0.2-2.8c-0.5-1.2-1.3-2.1-2.5-2.6c-0.2-0.1-0.4-0.2-0.7-0.2L59.6,3.2c0,0,0,0,0,0
		c-0.9-0.9-2.1-1.4-3.4-1.4c-1.3,0-2.5,0.5-3.4,1.4c0,0,0,0,0,0L41.8,14.2L38.7,2.4h0.5c0.7,0,1.2-0.5,1.2-1.2
		c0-0.7-0.5-1.2-1.2-1.2H25.7c-2.9,0-5.2,2.3-5.2,5.2v6.9h-6.2V7.4c0-2-1.6-3.6-3.6-3.6C10,3.8,9.4,4.3,9.4,5c0,0.7,0.5,1.2,1.2,1.2
		c0.7,0,1.2,0.5,1.2,1.2v4.8H5.2c-0.3,0-0.6,0.1-0.8,0.4l-3.8,3.8c-0.2,0.2-0.4,0.5-0.4,0.8V27c0,0.7,0.5,1.2,1.2,1.2h14.7l1.8,3.8
		h-3.3c-1.5-0.9-3.2-1.4-5-1.4c-5.3,0-9.6,4.3-9.6,9.6c0,5.3,4.3,9.6,9.6,9.6c4.3,0,7.9-2.8,9.1-6.6h16c1.2,3.8,4.9,6.6,9.1,6.6
		c5.3,0,9.6-4.3,9.6-9.6c0-5.3-4.3-9.6-9.6-9.6c-1.8,0-3.5,0.5-5,1.4h-3.3l1.8-3.8H45c0.3,0,0.6-0.1,0.8-0.4l7.9-7.9
		c0.2-0.2,0.3-0.5,0.3-0.7l0.3-4.1l2.7-2.7l9,9c0,0.1,0.1,0.3,0.1,0.4c0.3,0.8,0.8,1.5,1.5,2l-3.3,7.4l-1.1-0.5
		c-0.6-0.3-1.3,0-1.6,0.6c-0.3,0.6,0,1.3,0.6,1.6l4.3,1.9c1.1,0.5,2.2,0.7,3.3,0.7h0c3.2,0,6.2-1.9,7.5-4.9
		C79,27.4,78,23.5,75.4,21.2z M69.8,22.3c-0.6-0.3-1-0.7-1.2-1.3c-0.2-0.6-0.2-1.2,0-1.8c0.4-0.9,1.2-1.4,2.2-1.4
		c0.3,0,0.6,0.1,1,0.2c0.6,0.3,1,0.7,1.2,1.3c0.2,0.6,0.2,1.2,0,1.8c-0.4,0.9-1.2,1.4-2.2,1.4C70.4,22.5,70.1,22.5,69.8,22.3z
		 M39.6,15.5h-4.4l-2.5-2.9c-0.2-0.3-0.6-0.4-0.9-0.4h-2.6V2.4h6.9L39.6,15.5z M22.9,5.2c0-1.5,1.3-2.8,2.8-2.8h1.1v9.8h-3.9V5.2z
		 M9.6,47.3c-4,0-7.2-3.2-7.2-7.2c0-4,3.2-7.2,7.2-7.2c4,0,7.2,3.2,7.2,7.2C16.7,44.1,13.5,47.3,9.6,47.3z M19.1,40.7
		c0-0.2,0-0.4,0-0.5c0-2.2-0.7-4.1-1.9-5.7h18.9c-1.2,1.6-1.9,3.6-1.9,5.7c0,0.2,0,0.4,0,0.5H19.1z M50.9,40.2c0,4-3.2,7.2-7.2,7.2
		c-4,0-7.2-3.2-7.2-7.2c0-4,3.2-7.2,7.2-7.2C47.7,33,50.9,36.2,50.9,40.2z M20.5,32l-1.8-3.8h7.9c0.7,0,1.2-0.5,1.2-1.2
		c0-0.7-0.5-1.2-1.2-1.2h-24v-8.2l3.1-3.1h25.6l2.5,2.9c0.2,0.3,0.6,0.4,0.9,0.4h4.6L32.8,32H20.5z M52.4,13.7
		c-0.2,0.2-0.3,0.5-0.3,0.7l-0.3,4.1l-7.2,7.2h-6.1l3.9-8.6c0,0,0-0.1,0-0.1c0,0,0,0,0,0L54.5,4.9c0,0,0,0,0,0
		c0.4-0.4,1-0.7,1.7-0.7c0.6,0,1.2,0.2,1.7,0.7c0.4,0.4,0.7,1,0.7,1.7c0,0.6-0.2,1.2-0.7,1.7L52.4,13.7z M59.6,9.9
		c0.6-0.6,1-1.3,1.2-2.1l8,8c-1.1,0.5-2,1.3-2.4,2.4c0,0,0,0,0,0l-7.6-7.6L59.6,9.9z M75.3,29.8c-0.9,2.1-3,3.4-5.3,3.4
		c-0.8,0-1.6-0.2-2.3-0.5l-1.1-0.5l3.3-7.4c0.3,0,0.5,0.1,0.8,0.1c1.3,0,2.6-0.6,3.5-1.5C75.8,25.1,76.3,27.6,75.3,29.8z"/>
	<path class="st0" d="M9.6,35.4c-2.6,0-4.8,2.1-4.8,4.8c0,2.6,2.1,4.8,4.8,4.8s4.8-2.1,4.8-4.8C14.3,37.5,12.2,35.4,9.6,35.4z
		 M9.6,42.5c-1.3,0-2.4-1.1-2.4-2.4c0-1.3,1.1-2.4,2.4-2.4c1.3,0,2.4,1.1,2.4,2.4C11.9,41.5,10.9,42.5,9.6,42.5z"/>
	<path class="st0" d="M43.7,44.9c2.6,0,4.8-2.1,4.8-4.8c0-2.6-2.1-4.8-4.8-4.8S39,37.5,39,40.2C39,42.8,41.1,44.9,43.7,44.9z
		 M43.7,37.8c1.3,0,2.4,1.1,2.4,2.4c0,1.3-1.1,2.4-2.4,2.4c-1.3,0-2.4-1.1-2.4-2.4C41.4,38.9,42.4,37.8,43.7,37.8z"/>
	<path class="st0" d="M8.2,17.7c-0.7,0-1.2,0.5-1.2,1.2v2.9C7,22.5,7.6,23,8.2,23c0.7,0,1.2-0.5,1.2-1.2v-2.9
		C9.5,18.3,8.9,17.7,8.2,17.7z"/>
	<path class="st0" d="M13.1,17.7c-0.7,0-1.2,0.5-1.2,1.2v2.9c0,0.7,0.5,1.2,1.2,1.2c0.7,0,1.2-0.5,1.2-1.2v-2.9
		C14.3,18.3,13.7,17.7,13.1,17.7z"/>
	<path class="st0" d="M17.9,17.7c-0.7,0-1.2,0.5-1.2,1.2v2.9c0,0.7,0.5,1.2,1.2,1.2c0.7,0,1.2-0.5,1.2-1.2v-2.9
		C19.1,18.3,18.5,17.7,17.9,17.7z"/>
</g>
</svg>
