<?xml version="1.0" encoding="utf-8"?>
<!-- Generator: Adobe Illustrator 21.1.0, SVG Export Plug-In . SVG Version: 6.00 Build 0)  -->
<svg version="1.1" id="Layer_1" xmlns="http://www.w3.org/2000/svg" xmlns:xlink="http://www.w3.org/1999/xlink" x="0px" y="0px"
	 viewBox="0 0 96.7 48.4" style="enable-background:new 0 0 96.7 48.4;" xml:space="preserve">
<style type="text/css">
	.st0{fill:#4D4D4D;}
	.st1{clip-path:url(#SVGID_2_);}
	.st2{fill:none;stroke:#000000;stroke-width:2;stroke-linecap:round;stroke-linejoin:round;stroke-miterlimit:10;}
	.st3{fill:none;stroke:#4D4D4D;stroke-width:2.5;stroke-miterlimit:10;}
	.st4{fill:none;stroke:#4D4D4D;stroke-width:2.5;stroke-linecap:round;stroke-linejoin:round;stroke-miterlimit:10;}
	.st5{stroke:#231F20;stroke-width:0.55;stroke-miterlimit:10;}
</style>
<g>
	<path class="st0" d="M70.8,34.1c-2.6,0-4.8,2.1-4.8,4.8c0,2.6,2.1,4.8,4.8,4.8s4.8-2.1,4.8-4.8C75.6,36.2,73.5,34.1,70.8,34.1z
		 M70.8,41.2c-1.3,0-2.4-1.1-2.4-2.4c0-1.3,1.1-2.4,2.4-2.4s2.4,1.1,2.4,2.4C73.2,40.1,72.1,41.2,70.8,41.2z"/>
	<path class="st0" d="M38,30c-3.4,0-6.1,2.8-6.1,6.1s2.8,6.1,6.1,6.1c3.4,0,6.1-2.8,6.1-6.1S41.4,30,38,30z M38,39.9
		c-2.1,0-3.7-1.7-3.7-3.7s1.7-3.7,3.7-3.7c2.1,0,3.7,1.7,3.7,3.7S40,39.9,38,39.9z"/>
	<path class="st0" d="M56,20.9c-0.7,0-1.2,0.5-1.2,1.2V25c0,0.7,0.5,1.2,1.2,1.2c0.7,0,1.2-0.5,1.2-1.2v-2.9
		C57.2,21.4,56.6,20.9,56,20.9z"/>
	<path class="st0" d="M60.8,20.9c-0.7,0-1.2,0.5-1.2,1.2V25c0,0.7,0.5,1.2,1.2,1.2S62,25.6,62,25v-2.9C62,21.4,61.5,20.9,60.8,20.9z
		"/>
	<path class="st0" d="M65.6,26.2c0.7,0,1.2-0.5,1.2-1.2v-2.9c0-0.7-0.5-1.2-1.2-1.2c-0.7,0-1.2,0.5-1.2,1.2V25
		C64.4,25.6,64.9,26.2,65.6,26.2z"/>
	<path class="st0" d="M95.5,44.5h-1.1L89.2,27c-0.2-0.5-0.6-0.9-1.2-0.9H87c-2.9,0-5.2,2.3-5.2,5.2v0.7h-4.1
		c-0.6-0.6-1.3-1.2-2.1-1.6v-3.4c0-0.4-0.2-0.7-0.4-0.9l-2.4-1.9v-2.3c0-2.8-1.9-5.1-5-5.7l-12.5-2.7l-2.5-9.9h0.5
		c0.7,0,1.2-0.5,1.2-1.2s-0.5-1.2-1.2-1.2H38.7c-0.5,0-1,0.4-1.2,0.9c-0.7,2.8-1.7,7-2.4,9.7L24.8,1.4c0,0,0,0,0,0h0
		C23.9,0.5,22.7,0,21.4,0S18.9,0.5,18,1.4c-0.8,0.8-1.3,1.9-1.4,3l-4.8,15.9c-0.2,0.2-0.3,0.3-0.5,0.5c-0.3,0.4-0.5,0.8-0.7,1.3
		c0,0,0,0,0,0c0,0,0,0.1,0,0.1c-0.1,0.2-0.1,0.3-0.1,0.5c0,0,0,0,0,0l-8.1,0.5L2.4,22c0-0.7-0.6-1.2-1.3-1.1c-0.7,0-1.2,0.6-1.1,1.3
		l0.3,4.7c0.1,1.1,0.4,2.2,0.9,3.3c0,0,0,0,0,0c1.5,2.9,4.5,4.6,7.7,4.4c3.7-0.2,6.7-2.9,7.5-6.3c0.9-0.2,1.7-0.7,2.4-1.4
		c0.4-0.4,0.7-0.9,0.9-1.4c0.1-0.2,0.1-0.3,0.2-0.5c0-0.1,0-0.1,0-0.2c0-0.2,0.1-0.4,0.1-0.5c0,0,0-0.1,0-0.1c0,0,0,0,0,0
		c0-0.3,0-0.6,0-0.9c0-0.2,0-0.3-0.1-0.5l2.9-9.8l0.5,0.5l0.3,4.1c0,0.3,0.1,0.5,0.3,0.8l5.9,5.9v3c-2.5,2.2-4.1,5.5-4.1,9.1
		c0,6.8,5.5,12.2,12.2,12.2c6,0,11-4.4,12-10.1h3.8l2.8,2.5c0.2,0.2,0.5,0.3,0.8,0.3h4.1c1,4.2,4.8,7.3,9.3,7.3
		c4.5,0,8.4-3.2,9.3-7.5h1.6v0.7c0,2.9,2.3,5.2,5.2,5.2h8.5c0.7,0,1.2-0.5,1.2-1.2C96.7,45,96.1,44.5,95.5,44.5z M43.3,3.6h6.9
		L53,14.3l-2.1,2.4h-5.3l-2.3-2.7V3.6z M39.7,3.6h1.2v9.8h-3.6C37.8,11.1,38.9,6.8,39.7,3.6z M8.8,32.2c-2.3,0.1-4.4-1.1-5.5-3.1
		c-0.4-0.7-0.6-1.5-0.6-2.3l-0.1-1.2l8-0.5c0.1,0.2,0.1,0.4,0.2,0.5c0,0,0,0,0,0c0,0.1,0,0.1,0.1,0.2c0.6,1.2,1.7,2,2.9,2.4
		C13.1,30.4,11.2,32.1,8.8,32.2z M17.5,24.2c-0.1,0.4-0.3,0.8-0.5,1.1c-0.4,0.5-1,0.7-1.6,0.8c-0.9,0.1-1.8-0.4-2.2-1.3
		c-0.1-0.3-0.2-0.6-0.3-0.9c0-0.4,0.1-0.8,0.2-1.2c0.1-0.1,0.1-0.2,0.2-0.4c0.4-0.6,1.1-0.9,1.9-0.9c0.5,0,1,0.2,1.4,0.5
		c0.5,0.4,0.8,0.9,0.9,1.6C17.5,23.7,17.5,23.9,17.5,24.2z M18.1,20C18.1,20,18.1,20,18.1,20c-0.9-0.7-1.9-1-2.9-1
		c-0.1,0-0.3,0-0.4,0L18,8.1l2.8,2.8L18.1,20z M25.9,16.8l-0.3-4.1c0-0.3-0.1-0.5-0.3-0.8l-5.5-5.5c-0.9-0.9-0.9-2.4,0-3.3
		c0.4-0.4,1-0.7,1.7-0.7c0.6,0,1.2,0.2,1.7,0.7c0,0,0,0,0,0l11.3,11.3l-4.2,4.2c-0.2,0.2-0.4,0.5-0.4,0.8v1.3L25.9,16.8z M38,46
		c-5.4,0-9.8-4.4-9.8-9.8c0-5.4,4.4-9.8,9.8-9.8c5.4,0,9.8,4.4,9.8,9.8C47.8,41.6,43.4,46,38,46z M61.3,38.7h-3.4l-2.8-2.5
		c-0.2-0.2-0.5-0.3-0.8-0.3h-4.1c0-1.2-0.2-2.3-0.5-3.4H56c0.7,0,1.2-0.5,1.2-1.2s-0.5-1.2-1.2-1.2h-7.3c-2.1-3.7-6.1-6.2-10.7-6.2
		c-2.1,0-4.1,0.5-5.8,1.5v-5.5l4.1-4.1h5.3l2.5,2.9c0.2,0.3,0.6,0.4,0.9,0.4h6.4c0.3,0,0.7-0.2,0.9-0.4l2.4-2.8l12.6,2.7
		c1.9,0.4,3.1,1.7,3.1,3.4v2.9c0,0.4,0.2,0.7,0.4,0.9l2.4,1.9v1.8c-0.8-0.2-1.5-0.3-2.4-0.3C65.6,29.2,61.4,33.5,61.3,38.7z
		 M70.8,46c-4,0-7.2-3.2-7.2-7.2c0-4,3.2-7.2,7.2-7.2s7.2,3.2,7.2,7.2C78,42.8,74.8,46,70.8,46z M81.8,38.5h-1.4c0-1.4-0.4-2.8-1-4
		h2.4V38.5z M87,44.5c-1.5,0-2.8-1.3-2.8-2.8V31.4c0-1.5,1.3-2.8,2.8-2.8h0.2l4.7,15.9H87z"/>
</g>
</svg>
