<?xml version="1.0" encoding="utf-8"?>
<!-- Generator: Adobe Illustrator 21.1.0, SVG Export Plug-In . SVG Version: 6.00 Build 0)  -->
<svg version="1.1" id="Layer_1" xmlns="http://www.w3.org/2000/svg" xmlns:xlink="http://www.w3.org/1999/xlink" x="0px" y="0px"
	 viewBox="0 0 24.7 24.8" style="enable-background:new 0 0 24.7 24.8;" xml:space="preserve">
<style type="text/css">
	.st0{fill:#4D4D4D;}
	.st1{clip-path:url(#SVGID_2_);}
	.st2{fill:none;stroke:#000000;stroke-width:2;stroke-linecap:round;stroke-linejoin:round;stroke-miterlimit:10;}
	.st3{fill:none;stroke:#4D4D4D;stroke-width:2.5;stroke-miterlimit:10;}
	.st4{fill:none;stroke:#4D4D4D;stroke-width:2.5;stroke-linecap:round;stroke-linejoin:round;stroke-miterlimit:10;}
	.st5{stroke:#231F20;stroke-width:0.55;stroke-miterlimit:10;}
</style>
<g>
	<path d="M18.5,11.4h-5.1V4.6c0-0.6-0.5-1-1-1c-0.6,0-1,0.5-1,1v7.9l0,0.3l0.1,0.2l0,0c0.2,0.3,0.5,0.4,0.8,0.4h6.1c0.6,0,1-0.5,1-1
		C19.5,11.8,19,11.4,18.5,11.4z"/>
	<path d="M21.1,3.6C18.8,1.3,15.7,0,12.4,0C9.1,0,6,1.3,3.6,3.6C1.3,6,0,9.1,0,12.4c0,3.3,1.3,6.4,3.6,8.8c2.3,2.3,5.4,3.6,8.7,3.6
		c3.3,0,6.4-1.3,8.8-3.6c2.3-2.3,3.6-5.5,3.6-8.8C24.7,9.1,23.5,6,21.1,3.6z M22.7,12.4c0,2.8-1.1,5.4-3,7.3c-1.9,1.9-4.5,3-7.3,3
		c-2.8,0-5.4-1.1-7.3-3c-2-2-3-4.6-3-7.3c0-2.8,1.1-5.4,3-7.3c2-1.9,4.5-3,7.3-3c2.8,0,5.4,1.1,7.3,3h0C21.6,7,22.7,9.6,22.7,12.4z"
		/>
</g>
</svg>
