<?xml version="1.0" encoding="utf-8"?>
<!-- Generator: Adobe Illustrator 21.1.0, SVG Export Plug-In . SVG Version: 6.00 Build 0)  -->
<svg version="1.1" id="Layer_1" xmlns="http://www.w3.org/2000/svg" xmlns:xlink="http://www.w3.org/1999/xlink" x="0px" y="0px"
	 viewBox="0 0 69.8 47.4" style="enable-background:new 0 0 69.8 47.4;" xml:space="preserve">
<style type="text/css">
	.st0{fill:#4D4D4D;}
	.st1{clip-path:url(#SVGID_2_);}
	.st2{fill:none;stroke:#000000;stroke-width:2;stroke-linecap:round;stroke-linejoin:round;stroke-miterlimit:10;}
	.st3{fill:none;stroke:#4D4D4D;stroke-width:2.5;stroke-miterlimit:10;}
	.st4{fill:none;stroke:#4D4D4D;stroke-width:2.5;stroke-linecap:round;stroke-linejoin:round;stroke-miterlimit:10;}
	.st5{stroke:#231F20;stroke-width:0.55;stroke-miterlimit:10;}
</style>
<g>
	<path class="st0" d="M15.5,33c-2.6,0-4.8,2.1-4.8,4.8s2.1,4.8,4.8,4.8c2.6,0,4.8-2.1,4.8-4.8S18.1,33,15.5,33z M15.5,40.1
		c-1.3,0-2.4-1.1-2.4-2.4c0-1.3,1.1-2.4,2.4-2.4c1.3,0,2.4,1.1,2.4,2.4C17.9,39.1,16.8,40.1,15.5,40.1z"/>
	<path class="st0" d="M42.9,33c-2.6,0-4.8,2.1-4.8,4.8s2.1,4.8,4.8,4.8c2.6,0,4.8-2.1,4.8-4.8S45.5,33,42.9,33z M42.9,40.1
		c-1.3,0-2.4-1.1-2.4-2.4c0-1.3,1.1-2.4,2.4-2.4c1.3,0,2.4,1.1,2.4,2.4C45.2,39.1,44.2,40.1,42.9,40.1z"/>
	<path class="st0" d="M69.3,39.3l-9.5-6.9c-0.2-0.1-0.5-0.2-0.7-0.2h-8.4c0,0-0.1-0.1-0.1-0.1l2.2-3.9c0.1-0.2,0.2-0.4,0.2-0.6v-4.3
		l5-6.6c0.2-0.2,0.2-0.5,0.2-0.7V3.2C58.2,2.6,57.7,2,57,2H37.6c-0.7,0-1.2,0.5-1.2,1.2V7h-8.8c-0.3,0-0.6,0.1-0.8,0.3l-3,2.8h-1.1
		l-7.6-8.8C14.4,0.5,13.3,0,12.2,0h-11C0.7,0,0.3,0.3,0.1,0.7C-0.1,1.1,0,1.6,0.2,1.9l4.1,5.4c0.2,0.3,0.6,0.5,1,0.5h5.1l2,2.3h-0.2
		c-2.9,0-5.2,2.3-5.2,5.2v12.5c0,0.3,0.1,0.6,0.3,0.8l1.8,1.9c-2,1.8-3.2,4.3-3.2,7.2c0,5.3,4.3,9.6,9.6,9.6c4.3,0,8-2.9,9.2-6.9
		h8.9c1.2,4,4.9,6.9,9.2,6.9c4.3,0,8-2.9,9.2-6.9h3v3.1c0,0.7,0.5,1.2,1.2,1.2h12.3c0.7,0,1.2-0.5,1.2-1.2v-3.4
		C69.8,39.9,69.6,39.5,69.3,39.3z M55.8,14.8l-4.9,0V4.5h4.9V14.8z M45,4.5h3.4v10.4l-0.6,0c-1.6,0-2.8-1.3-2.8-2.8V4.5z M38.9,4.5
		h3.8V12c0,2.9,2.3,5.2,5.2,5.2l6.7,0l-3.4,4.5H38.9V4.5z M11.9,5.8c-0.2-0.3-0.6-0.4-0.9-0.4H5.9l-2.3-3h8.5c0.4,0,0.8,0.2,1.1,0.5
		l6.3,7.2h-3.9L11.9,5.8z M9.4,15.4c0-1.6,1.3-2.8,2.8-2.8h12.1c0.3,0,0.6-0.1,0.8-0.3l3-2.8h8.3v12.3h-7.1V20
		c0-0.7-0.5-1.2-1.2-1.2c-0.7,0-1.2,0.5-1.2,1.2v1.7h-2.4V20c0-0.7-0.5-1.2-1.2-1.2c-0.7,0-1.2,0.5-1.2,1.2v1.7h-2.4V20
		c0-0.7-0.5-1.2-1.2-1.2c-0.7,0-1.2,0.5-1.2,1.2v1.7H9.4V15.4z M15.5,45c-4,0-7.2-3.2-7.2-7.2c0-4,3.2-7.2,7.2-7.2
		c4,0,7.2,3.2,7.2,7.2C22.7,41.7,19.5,45,15.5,45z M25.1,38.1c0-0.1,0-0.2,0-0.3c0-5.3-4.3-9.6-9.6-9.6c-1.6,0-3.1,0.4-4.4,1.1
		l-1.7-1.8v-3.2h41.2v3.1l-1.7,3c-1.6-1.3-3.7-2.1-6-2.1c-3.2,0-6.1,1.6-7.8,4h-5.3c-0.7,0-1.2,0.5-1.2,1.2c0,0.7,0.5,1.2,1.2,1.2h4
		c-0.3,1-0.5,2-0.5,3.2c0,0.1,0,0.2,0,0.3H25.1z M42.9,45c-4,0-7.2-3.2-7.2-7.2c0-4,3.2-7.2,7.2-7.2c4,0,7.2,3.2,7.2,7.2
		C50.1,41.7,46.8,45,42.9,45z M52.5,38.1c0-0.1,0-0.2,0-0.3c0-1.1-0.2-2.2-0.5-3.2h3.1v3.5H52.5z M67.4,42.4h-9.8v-1.9c0,0,0,0,0,0
		h1.2c0.7,0,1.2-0.5,1.2-1.2c0-0.7-0.5-1.2-1.2-1.2h-1.2c0,0,0,0,0,0v-3.5h1.1l8.7,6.3V42.4z"/>
</g>
</svg>
