<?xml version="1.0" encoding="utf-8"?>
<!-- Generator: Adobe Illustrator 21.1.0, SVG Export Plug-In . SVG Version: 6.00 Build 0)  -->
<svg version="1.1" id="Layer_1" xmlns="http://www.w3.org/2000/svg" xmlns:xlink="http://www.w3.org/1999/xlink" x="0px" y="0px"
	 viewBox="0 0 23.5 28.9" style="enable-background:new 0 0 23.5 28.9;" xml:space="preserve">
<style type="text/css">
	.st0{fill:#4D4D4D;}
	.st1{clip-path:url(#SVGID_2_);}
	.st2{fill:none;stroke:#000000;stroke-width:2;stroke-linecap:round;stroke-linejoin:round;stroke-miterlimit:10;}
	.st3{fill:none;stroke:#4D4D4D;stroke-width:2.5;stroke-miterlimit:10;}
	.st4{fill:none;stroke:#4D4D4D;stroke-width:2.5;stroke-linecap:round;stroke-linejoin:round;stroke-miterlimit:10;}
	.st5{stroke:#231F20;stroke-width:0.55;stroke-miterlimit:10;}
</style>
<g>
	<path class="st5" d="M11.7,5.9c-3.3,0-5.9,2.7-5.9,5.9s2.7,5.9,5.9,5.9c3.3,0,5.9-2.7,5.9-5.9C17.6,8.6,15,5.9,11.7,5.9L11.7,5.9z
		 M11.7,16.4c-2.5,0-4.5-2-4.5-4.5c0-2.5,2-4.5,4.5-4.5c2.5,0,4.5,2,4.5,4.5C16.2,14.3,14.2,16.4,11.7,16.4L11.7,16.4z M11.7,16.4"
		/>
	<path class="st5" d="M11.7,0.3c-0.1,0-0.3,0-0.4,0C5.6,0.5,0.9,4.9,0.3,10.6c-0.1,1.1-0.1,2.2,0.2,3.3c0,0,0,0.1,0.1,0.4
		C0.7,15,1,15.8,1.3,16.5c1.2,2.8,3.8,7.1,9.4,11.7c0.3,0.2,0.7,0.4,1,0.4c0.4,0,0.8-0.1,1-0.4c5.6-4.6,8.2-8.9,9.3-11.7
		c0.3-0.7,0.6-1.5,0.8-2.3c0-0.1,0.1-0.3,0.1-0.4c0.1-0.7,0.2-1.4,0.2-2.2C23.2,5.4,18,0.3,11.7,0.3L11.7,0.3z M21.6,13.6
		c0,0,0,0.1-0.1,0.3c-0.2,0.7-0.4,1.4-0.7,2c-1.1,2.6-3.6,6.7-8.9,11.2c-0.1,0-0.1,0.1-0.1,0.1c0,0-0.1,0-0.1-0.1
		c-5.4-4.5-7.8-8.5-9-11.2c-0.3-0.6-0.5-1.3-0.7-2c0-0.2-0.1-0.2-0.1-0.3c0,0,0,0,0,0c-0.2-0.9-0.2-1.9-0.1-2.9c0.5-5,4.6-8.9,9.6-9
		c5.7-0.2,10.4,4.4,10.4,10C21.7,12.4,21.7,13,21.6,13.6L21.6,13.6z M21.6,13.6"/>
</g>
</svg>
