<?xml version="1.0" encoding="utf-8"?>
<!-- Generator: Adobe Illustrator 21.1.0, SVG Export Plug-In . SVG Version: 6.00 Build 0)  -->
<svg version="1.1" id="Layer_1" xmlns="http://www.w3.org/2000/svg" xmlns:xlink="http://www.w3.org/1999/xlink" x="0px" y="0px"
	 viewBox="0 0 60 44.4" style="enable-background:new 0 0 60 44.4;" xml:space="preserve">
<style type="text/css">
	.st0{fill:#4D4D4D;}
	.st1{clip-path:url(#SVGID_2_);}
	.st2{fill:none;stroke:#000000;stroke-width:2;stroke-linecap:round;stroke-linejoin:round;stroke-miterlimit:10;}
	.st3{fill:none;stroke:#4D4D4D;stroke-width:2.5;stroke-miterlimit:10;}
	.st4{fill:none;stroke:#4D4D4D;stroke-width:2.5;stroke-linecap:round;stroke-linejoin:round;stroke-miterlimit:10;}
	.st5{stroke:#231F20;stroke-width:0.55;stroke-miterlimit:10;}
</style>
<g>
	<path class="st0" d="M58.8,38.4h-1l-3.9-13.9c-0.1-0.5-0.6-0.9-1.2-0.9h-1.1c-0.6,0-1.1,0.1-1.6,0.3l-2.6-4.1
		c0.2-0.5,0.3-0.9,0.3-1.5c0-2.3-1.9-4.1-4.1-4.1H32l-2.3-1.7c-0.2-0.2-0.5-0.3-0.7-0.3h-2.8l-2.5-9.8h0.5c0.7,0,1.2-0.5,1.2-1.2
		c0-0.7-0.5-1.2-1.2-1.2H9.7c-0.5,0-1,0.4-1.2,0.9c-0.9,3.4-2.2,9-2.7,11.3h-3c-0.7,0-1.2,0.5-1.2,1.2v16.2c-1,1.5-1.6,3.3-1.6,5.3
		c0,5.3,4.3,9.6,9.6,9.6c5.1,0,9.3-4,9.5-9h4.2c0.3,5,4.5,9,9.5,9c5.3,0,9.6-4.3,9.6-9.6c0-5.3-4.3-9.6-9.6-9.6c0,0-0.1,0-0.1,0
		L32,22.4h7.9l6.5,10v3.1c0,2.9,2.3,5.2,5.2,5.2h7.2c0.7,0,1.2-0.5,1.2-1.2C60,38.9,59.5,38.4,58.8,38.4z M30.8,16.3
		c0.2,0.2,0.5,0.3,0.7,0.3h12c1,0,1.7,0.8,1.7,1.7c0,1-0.8,1.7-1.7,1.7H28.4v-1.7c0-0.7-0.5-1.2-1.2-1.2c-0.7,0-1.2,0.5-1.2,1.2V20
		h-2.4v-1.7c0-0.7-0.5-1.2-1.2-1.2c-0.7,0-1.2,0.5-1.2,1.2V20h-2.4v-1.7c0-0.7-0.5-1.2-1.2-1.2c-0.7,0-1.2,0.5-1.2,1.2V20h-1.3
		l-3.3-5.5h16.7L30.8,16.3z M23.7,12.2h-9.4V2.4h6.9L23.7,12.2z M10.6,2.4h1.2v9.8H8.3C8.8,9.9,9.8,5.5,10.6,2.4z M9.6,42
		c-4,0-7.2-3.2-7.2-7.2c0-4,3.2-7.2,7.2-7.2s7.2,3.2,7.2,7.2C16.7,38.8,13.5,42,9.6,42z M40,34.8c0,4-3.2,7.2-7.2,7.2
		c-4,0-7.2-3.2-7.2-7.2c0-4,3.2-7.2,7.2-7.2C36.8,27.7,40,30.9,40,34.8z M23.5,33H19c-0.9-4.4-4.7-7.7-9.4-7.7c-2.1,0-4,0.7-5.6,1.8
		v-4.6h2.6c0.7,0,1.2-0.5,1.2-1.2c0-0.7-0.5-1.2-1.2-1.2H4v-5.5h5l4.3,7.3c0.2,0.4,0.6,0.6,1,0.6h15.1l0.8,3.2
		C26.9,26.5,24.2,29.4,23.5,33z M46.5,28.1l-3.7-5.7h0.8c0.8,0,1.6-0.3,2.3-0.7l2.2,3.3C47.2,25.9,46.6,26.9,46.5,28.1z M51.7,38.4
		c-1.5,0-2.8-1.3-2.8-2.8v-6.8c0-1.5,1.3-2.8,2.8-2.8h0.2l3.5,12.4H51.7z"/>
	<path class="st0" d="M28.1,34.8c0,2.6,2.1,4.8,4.8,4.8s4.8-2.1,4.8-4.8c0-2.6-2.1-4.8-4.8-4.8S28.1,32.2,28.1,34.8z M35.2,34.8
		c0,1.3-1.1,2.4-2.4,2.4c-1.3,0-2.4-1.1-2.4-2.4c0-1.3,1.1-2.4,2.4-2.4C34.2,32.5,35.2,33.5,35.2,34.8z"/>
	<path class="st0" d="M9.6,30.1c-2.6,0-4.8,2.1-4.8,4.8c0,2.6,2.1,4.8,4.8,4.8s4.8-2.1,4.8-4.8C14.3,32.2,12.2,30.1,9.6,30.1z
		 M9.6,37.2c-1.3,0-2.4-1.1-2.4-2.4c0-1.3,1.1-2.4,2.4-2.4s2.4,1.1,2.4,2.4C11.9,36.1,10.9,37.2,9.6,37.2z"/>
</g>
</svg>
