<?xml version="1.0" encoding="utf-8"?>
<!-- Generator: Adobe Illustrator 21.1.0, SVG Export Plug-In . SVG Version: 6.00 Build 0)  -->
<svg version="1.1" id="Layer_1" xmlns="http://www.w3.org/2000/svg" xmlns:xlink="http://www.w3.org/1999/xlink" x="0px" y="0px"
	 viewBox="0 0 78.3 47.2" style="enable-background:new 0 0 78.3 47.2;" xml:space="preserve">
<style type="text/css">
	.st0{fill:#4D4D4D;}
	.st1{clip-path:url(#SVGID_2_);}
	.st2{fill:none;stroke:#000000;stroke-width:2;stroke-linecap:round;stroke-linejoin:round;stroke-miterlimit:10;}
	.st3{fill:none;stroke:#4D4D4D;stroke-width:2.5;stroke-miterlimit:10;}
	.st4{fill:none;stroke:#4D4D4D;stroke-width:2.5;stroke-linecap:round;stroke-linejoin:round;stroke-miterlimit:10;}
	.st5{stroke:#231F20;stroke-width:0.55;stroke-miterlimit:10;}
</style>
<g>
	<path class="st0" d="M77.1,42.9H76l-5.2-17.4c-0.2-0.5-0.6-0.9-1.2-0.9h-1.1c-2.9,0-5.2,2.3-5.2,5.2v0.7h-3.4
		c-1.2-3-3.5-5.4-6.4-6.8l-3.4-5.1c-0.2-0.3-0.6-0.5-1-0.5h-5.6v-1.5c0-0.3-0.1-0.6-0.4-0.9l-3.5-3.3c-0.2-0.2-0.5-0.3-0.8-0.3H36
		l-2.7-9.8H34c0.7,0,1.2-0.5,1.2-1.2C35.2,0.5,34.7,0,34,0H20.6c-2.9,0-5.2,2.3-5.2,5.2v6.9H13V7.4c0-2-1.6-3.6-3.6-3.6
		C8.7,3.8,8.1,4.3,8.1,5c0,0.7,0.5,1.2,1.2,1.2c0.7,0,1.2,0.5,1.2,1.2v4.8H8c-2.9,0-5.2,2.3-5.2,5.2v7.1H1.2C0.5,24.5,0,25,0,25.7
		V31c0,0.4,0.2,0.8,0.6,1l7.1,4.5c0.8,6,5.9,10.6,12.1,10.6c5.3,0,9.9-3.4,11.5-8.2H37c1.7,4.8,6.2,8.2,11.5,8.2
		c5.2,0,9.6-3.3,11.4-7.8h3.4V40c0,2.9,2.3,5.2,5.2,5.2h8.5c0.7,0,1.2-0.5,1.2-1.2C78.3,43.4,77.7,42.9,77.1,42.9z M48.5,20.6
		l1.5,2.2c-0.5-0.1-1-0.1-1.4-0.1c-1.8,0-3.4,0.4-5,1.1v-3.2H48.5z M33.8,13.2l-1.2,2.3h-6.3l-2.2-2.6V2.4h6.7L33.8,13.2z M17.8,5.2
		c0-1.5,1.3-2.8,2.8-2.8h1.1v9.8h-3.9V5.2z M19.8,44.8c-5.4,0-9.8-4.4-9.8-9.8s4.4-9.8,9.8-9.8c5.4,0,9.8,4.4,9.8,9.8
		S25.2,44.8,19.8,44.8z M31.9,36.6C32,36,32,35.5,32,34.9c0-6.8-5.5-12.2-12.2-12.2c-6.3,0-11.5,4.8-12.2,11l-5.2-3.3v-3.4H4
		c0.7,0,1.2-0.5,1.2-1.2v-5h6.8c0.7,0,1.2-0.5,1.2-1.2c0-0.7-0.5-1.2-1.2-1.2H5.2v-1c0-1.5,1.3-2.8,2.8-2.8h14.3l2.5,2.9
		c0.2,0.3,0.6,0.4,0.9,0.4h7.6c0.4,0,0.9-0.2,1.1-0.6l1.4-2.7h2.6l2.8,2.7v7.9c-0.4,0.3-0.8,0.7-1.2,1h-4.6c-0.7,0-1.2,0.5-1.2,1.2
		c0,0.7,0.5,1.2,1.2,1.2H38c-1.1,1.8-1.8,4-1.8,6.3c0,0.6,0,1.1,0.1,1.7H31.9z M48.5,44.8c-5.4,0-9.8-4.4-9.8-9.8s4.4-9.8,9.8-9.8
		c5.4,0,9.8,4.4,9.8,9.8S53.9,44.8,48.5,44.8z M60.6,36.9c0.1-0.7,0.2-1.3,0.2-2s-0.1-1.4-0.2-2h2.8v4H60.6z M68.6,42.9
		c-1.5,0-2.8-1.3-2.8-2.8V29.8c0-1.5,1.3-2.8,2.8-2.8h0.2l4.7,15.9H68.6z"/>
	<path class="st0" d="M19.8,28.8c-3.4,0-6.1,2.8-6.1,6.1c0,3.4,2.8,6.1,6.1,6.1c3.4,0,6.1-2.8,6.1-6.1
		C25.9,31.5,23.2,28.8,19.8,28.8z M19.8,38.7c-2.1,0-3.7-1.7-3.7-3.7s1.7-3.7,3.7-3.7c2.1,0,3.7,1.7,3.7,3.7S21.8,38.7,19.8,38.7z"
		/>
	<path class="st0" d="M48.5,28.8c-3.4,0-6.1,2.8-6.1,6.1c0,3.4,2.8,6.1,6.1,6.1c3.4,0,6.1-2.8,6.1-6.1
		C54.7,31.5,51.9,28.8,48.5,28.8z M48.5,38.7c-2.1,0-3.7-1.7-3.7-3.7s1.7-3.7,3.7-3.7c2.1,0,3.7,1.7,3.7,3.7S50.6,38.7,48.5,38.7z"
		/>
</g>
</svg>
