<?xml version="1.0" encoding="utf-8"?>
<!-- Generator: Adobe Illustrator 21.1.0, SVG Export Plug-In . SVG Version: 6.00 Build 0)  -->
<svg version="1.1" id="Layer_1" xmlns="http://www.w3.org/2000/svg" xmlns:xlink="http://www.w3.org/1999/xlink" x="0px" y="0px"
	 viewBox="0 0 69.1 44.6" style="enable-background:new 0 0 69.1 44.6;" xml:space="preserve">
<style type="text/css">
	.st0{fill:#4D4D4D;}
	.st1{clip-path:url(#SVGID_2_);}
	.st2{fill:none;stroke:#000000;stroke-width:2;stroke-linecap:round;stroke-linejoin:round;stroke-miterlimit:10;}
	.st3{fill:none;stroke:#4D4D4D;stroke-width:2.5;stroke-miterlimit:10;}
	.st4{fill:none;stroke:#4D4D4D;stroke-width:2.5;stroke-linecap:round;stroke-linejoin:round;stroke-miterlimit:10;}
	.st5{stroke:#231F20;stroke-width:0.55;stroke-miterlimit:10;}
</style>
<g>
	<path class="st0" d="M24.4,22.9h-2.9c-0.7,0-1.2,0.5-1.2,1.2c0,0.7,0.5,1.2,1.2,1.2h2.9c0.7,0,1.2-0.5,1.2-1.2
		C25.6,23.4,25.1,22.9,24.4,22.9z"/>
	<path class="st0" d="M24.4,27.7h-2.9c-0.7,0-1.2,0.5-1.2,1.2c0,0.7,0.5,1.2,1.2,1.2h2.9c0.7,0,1.2-0.5,1.2-1.2
		C25.6,28.3,25.1,27.7,24.4,27.7z"/>
	<path class="st0" d="M67.9,37.4H65v-0.6c0-0.7-0.5-1.2-1.2-1.2c-0.7,0-1.2,0.5-1.2,1.2v0.6h-2.4v-0.6c0-0.7-0.5-1.2-1.2-1.2
		c-0.7,0-1.2,0.5-1.2,1.2v0.6h-3.1c0.2-0.8,0.3-1.6,0.3-2.4c0-2.5-1-4.8-2.6-6.5V1.2c0-0.7-0.5-1.2-1.2-1.2H44
		c-0.7,0-1.2,0.5-1.2,1.2v3.4c0,0.2,0.1,0.4,0.2,0.6l2.2,3.7v16.5c-0.8,0-1.6,0.1-2.4,0.4v-3.9c0-0.2-0.1-0.4-0.2-0.6l-3.5-5.8
		c-0.2-0.4-0.6-0.6-1-0.6h-1.7L33.7,2.4h0.6c0.7,0,1.2-0.5,1.2-1.2C35.5,0.5,35,0,34.3,0H19.8c-0.6,0-1.1,0.4-1.2,1
		c-0.6,3.7-2.2,13.1-2.8,16.2H13v-4.8c0-2-1.6-3.6-3.6-3.6c-0.7,0-1.2,0.5-1.2,1.2c0,0.7,0.5,1.2,1.2,1.2c0.7,0,1.2,0.5,1.2,1.2v4.8
		H7.1c-0.3,0-0.6,0.1-0.8,0.4l-3.8,3.8c-0.2,0.2-0.4,0.5-0.4,0.8v6.7C0.8,30.6,0,32.7,0,35c0,5.3,4.3,9.6,9.6,9.6
		c3.5,0,6.6-1.9,8.3-4.7h19.4c1.7,2.8,4.7,4.7,8.3,4.7c3.5,0,6.6-1.9,8.3-4.7h14.2c0.7,0,1.2-0.5,1.2-1.2
		C69.1,38,68.6,37.4,67.9,37.4z M45.2,2.4H50v24.2c-0.7-0.4-1.6-0.7-2.4-0.9V8.6c0-0.2-0.1-0.4-0.2-0.6l-2.2-3.7V2.4z M34.3,16.2
		v6.3h-3.1l-2.5-4.6c-0.2-0.4-0.6-0.6-1.1-0.6h-3.2V2.4h6.9L34.3,16.2z M20.8,2.4H22v14.8h-3.7C18.8,14.1,20.1,6.4,20.8,2.4z
		 M9.6,42.1c-4,0-7.2-3.2-7.2-7.2c0-4,3.2-7.2,7.2-7.2c4,0,7.2,3.2,7.2,7.2C16.7,38.9,13.5,42.1,9.6,42.1z M18.8,37.4
		c0.2-0.8,0.3-1.6,0.3-2.4c0-5.3-4.3-9.6-9.6-9.6c-1.8,0-3.5,0.5-5,1.4v-4.1l3.1-3.1h19.2l2.5,4.6c0.2,0.4,0.6,0.6,1.1,0.6h5.1
		c0.7,0,1.2-0.5,1.2-1.2v-6.4h0.8l3,4.9v4.7c-1.8,1.1-3.3,2.9-4,5h-5.8c-0.7,0-1.2,0.5-1.2,1.2c0,0.7,0.5,1.2,1.2,1.2h5.3
		c0,0.3,0,0.5,0,0.8c0,0.8,0.1,1.7,0.3,2.4H18.8z M45.4,42.1c-4,0-7.2-3.2-7.2-7.2c0-4,3.2-7.2,7.2-7.2c4,0,7.2,3.2,7.2,7.2
		C52.6,38.9,49.4,42.1,45.4,42.1z"/>
	<path class="st0" d="M45.4,30.2c-2.6,0-4.8,2.1-4.8,4.8c0,2.6,2.1,4.8,4.8,4.8c2.6,0,4.8-2.1,4.8-4.8
		C50.2,32.4,48.1,30.2,45.4,30.2z M45.4,37.3c-1.3,0-2.4-1.1-2.4-2.4c0-1.3,1.1-2.4,2.4-2.4c1.3,0,2.4,1.1,2.4,2.4
		C47.8,36.3,46.7,37.3,45.4,37.3z"/>
	<path class="st0" d="M9.6,30.2c-2.6,0-4.8,2.1-4.8,4.8c0,2.6,2.1,4.8,4.8,4.8c2.6,0,4.8-2.1,4.8-4.8C14.3,32.4,12.2,30.2,9.6,30.2z
		 M9.6,37.3c-1.3,0-2.4-1.1-2.4-2.4c0-1.3,1.1-2.4,2.4-2.4c1.3,0,2.4,1.1,2.4,2.4C11.9,36.3,10.9,37.3,9.6,37.3z"/>
</g>
</svg>
