<svg xmlns="http://www.w3.org/2000/svg" width="14.969" height="16" viewBox="0 0 14.969 16">
  <metadata><?xpacket begin="﻿" id="W5M0MpCehiHzreSzNTczkc9d"?>
<x:xmpmeta xmlns:x="adobe:ns:meta/" x:xmptk="Adobe XMP Core 5.6-c138 79.159824, 2016/09/14-01:09:01        ">
   <rdf:RDF xmlns:rdf="http://www.w3.org/1999/02/22-rdf-syntax-ns#">
      <rdf:Description rdf:about=""/>
   </rdf:RDF>
</x:xmpmeta>
<?xpacket end="w"?></metadata>
<defs>
    <style>
      .cls-1 {
        fill: #fff;
        fill-rule: evenodd;
      }
    </style>
  </defs>
  <path class="cls-1" d="M362.15,648.268a1.686,1.686,0,0,1-1.346-.678l-4.453-5.918a1.768,1.768,0,0,1,.309-2.441,1.672,1.672,0,0,1,2.383.316l2.913,3.872,5.865-10.268a1.678,1.678,0,0,1,2.325-.624,1.765,1.765,0,0,1,.608,2.382l-7.137,12.5a1.7,1.7,0,0,1-1.359.859C362.222,648.267,362.185,648.268,362.15,648.268Z" transform="translate(-356 -632.281)"/>
</svg>
